<mxfile host="app.diagrams.net" modified="2024-04-25T10:42:14.788Z" agent="Mozilla/5.0 (Windows NT 10.0; Win64; x64) AppleWebKit/537.36 (KHTML, like Gecko) Chrome/124.0.0.0 Safari/537.36" etag="74il5UL1WMjMKdF9BVRb" version="24.3.0" type="device">
  <diagram name="PÃ¡gina-1" id="nOBHwNRcWuBrZugmuWIi">
    <mxGraphModel dx="925" dy="771" grid="1" gridSize="10" guides="1" tooltips="1" connect="1" arrows="1" fold="1" page="1" pageScale="1" pageWidth="827" pageHeight="1169" math="0" shadow="0">
      <root>
        <mxCell id="0" />
        <mxCell id="1" parent="0" />
        <mxCell id="n2dt8yKTcGqrxmwAYyot-1" value="" style="rounded=0;whiteSpace=wrap;html=1;" vertex="1" parent="1">
          <mxGeometry x="80" y="90" width="610" height="200" as="geometry" />
        </mxCell>
        <mxCell id="n2dt8yKTcGqrxmwAYyot-2" value="" style="ellipse;whiteSpace=wrap;html=1;" vertex="1" parent="1">
          <mxGeometry x="170" y="140" width="120" height="80" as="geometry" />
        </mxCell>
        <mxCell id="n2dt8yKTcGqrxmwAYyot-3" value="&lt;h1 style=&quot;margin-top: 0px;&quot;&gt;Heading&lt;/h1&gt;&lt;p&gt;Lorem ipsum dolor sit amet, consectetur adipisicing elit, sed do eiusmod tempor incididunt ut labore et dolore magna aliqua.&lt;/p&gt;" style="text;html=1;whiteSpace=wrap;overflow=hidden;rounded=0;" vertex="1" parent="1">
          <mxGeometry x="120" y="340" width="180" height="120" as="geometry" />
        </mxCell>
        <mxCell id="n2dt8yKTcGqrxmwAYyot-4" value="Text" style="text;html=1;align=center;verticalAlign=middle;whiteSpace=wrap;rounded=0;" vertex="1" parent="1">
          <mxGeometry x="500" y="160" width="60" height="30" as="geometry" />
        </mxCell>
      </root>
    </mxGraphModel>
  </diagram>
</mxfile>
